# xmcd CD database file
#
# Track frame offsets:
#	187
#	21775
#	30900
#	50620
#	62795
#	68182
#	92840
#	110375
#	131727
#	155385
#	166395
#	168585
#	188352
#
# Disc length: 2774 seconds
#
# Revision: 4
# Processed by: cddbd v1.5.2PL0 Copyright (c) Steve Scherf et al.
# Submitted via: CDex 1.51
#
DISCID=a50ad40d
DTITLE=Secrecy - Raging Romance
DYEAR=1991
DGENRE=Heavy Metal
TTITLE0=Observer From Above
TTITLE1=Embrace (The Greatest Gift - Part 1)
TTITLE2=Times Of Tears
TTITLE3=Mourning
TTITLE4=Guitarian
TTITLE5=This World's Wisdom
TTITLE6=The One To Adore
TTITLE7=No? No!
TTITLE8=All Effort's Aim (The Greatest Gift - Part 2)
TTITLE9=Through Clouds Of Doubt
TTITLE10=To Mind's Borderline (This World's Wisdom - Reprise)
TTITLE11=Ideology
TTITLE12=Masquerade (I. Masquerade - II. Dawn)
EXTD=
EXTT0=
EXTT1=
EXTT2=
EXTT3=
EXTT4=
EXTT5=
EXTT6=CD Bonus Track
EXTT7=
EXTT8=
EXTT9=
EXTT10=This World's Wisdom/Reprise
EXTT11=
EXTT12=I Masquerade\nII Dawn
PLAYORDER=
